<svg width="20" height="21" viewBox="0 0 20 21" fill="none" xmlns="http://www.w3.org/2000/svg">
<g id="Frame">
<g id="Group">
<path id="Vector" d="M10 3C5.86469 3 2.5 6.36469 2.5 10.5C2.5 14.6353 5.86469 18 10 18C14.1353 18 17.5 14.6353 17.5 10.5C17.5 6.36469 14.1353 3 10 3ZM12.3169 12.8169C12.1947 12.9391 12.035 13 11.875 13C11.715 13 11.5553 12.9391 11.4331 12.8169L9.55813 10.9419C9.44091 10.8247 9.37504 10.6657 9.375 10.5V6.09687C9.375 5.93111 9.44085 5.77214 9.55806 5.65493C9.67527 5.53772 9.83424 5.47187 10 5.47187C10.1658 5.47187 10.3247 5.53772 10.4419 5.65493C10.5592 5.77214 10.625 5.93111 10.625 6.09687V10.2413L12.3169 11.9331C12.434 12.0503 12.4999 12.2093 12.4999 12.375C12.4999 12.5407 12.434 12.6997 12.3169 12.8169Z" fill="#01AA73"/>
</g>
</g>
</svg>
