<svg width="40" height="30" viewBox="0 0 40 30" fill="none" xmlns="http://www.w3.org/2000/svg">
<g id="Group">
<path id="13-Delivery-truck" d="M39.8 14.2736L35.5143 7.13072C35.3878 6.91746 35.2081 6.74079 34.9927 6.61805C34.7773 6.49532 34.5336 6.43076 34.2857 6.43072H25.7143V2.145C25.7143 1.76612 25.5638 1.40276 25.2959 1.13485C25.028 0.866941 24.6646 0.716431 24.2857 0.716431H1.42857C1.04969 0.716431 0.686328 0.866941 0.418419 1.13485C0.15051 1.40276 0 1.76612 0 2.145V25.0021C0 25.381 0.15051 25.7444 0.418419 26.0123C0.686328 26.2802 1.04969 26.4307 1.42857 26.4307H5.97143C6.27172 27.2581 6.81947 27.9729 7.54024 28.4781C8.261 28.9833 9.11983 29.2543 10 29.2543C10.8802 29.2543 11.739 28.9833 12.4598 28.4781C13.1805 27.9729 13.7283 27.2581 14.0286 26.4307H27.4C27.7003 27.2581 28.248 27.9729 28.9688 28.4781C29.6896 28.9833 30.5484 29.2543 31.4286 29.2543C32.3087 29.2543 33.1676 28.9833 33.8883 28.4781C34.6091 27.9729 35.1568 27.2581 35.4571 26.4307H38.5714C38.9503 26.4307 39.3137 26.2802 39.5816 26.0123C39.8495 25.7444 40 25.381 40 25.0021V15.0021C39.9999 14.7457 39.9308 14.4941 39.8 14.2736ZM10 26.4307C9.71745 26.4307 9.44126 26.3469 9.20633 26.19C8.9714 26.033 8.7883 25.8099 8.68017 25.5488C8.57205 25.2878 8.54376 25.0006 8.59888 24.7234C8.654 24.4463 8.79006 24.1918 8.98985 23.992C9.18964 23.7922 9.44418 23.6561 9.7213 23.601C9.99842 23.5459 10.2857 23.5742 10.5467 23.6823C10.8077 23.7904 11.0308 23.9735 11.1878 24.2085C11.3448 24.4434 11.4286 24.7196 11.4286 25.0021C11.4286 25.381 11.2781 25.7444 11.0102 26.0123C10.7422 26.2802 10.3789 26.4307 10 26.4307ZM31.4286 26.4307C31.146 26.4307 30.8698 26.3469 30.6349 26.19C30.4 26.033 30.2169 25.8099 30.1087 25.5488C30.0006 25.2878 29.9723 25.0006 30.0275 24.7234C30.0826 24.4463 30.2186 24.1918 30.4184 23.992C30.6182 23.7922 30.8728 23.6561 31.1499 23.601C31.427 23.5459 31.7142 23.5742 31.9753 23.6823C32.2363 23.7904 32.4594 23.9735 32.6164 24.2085C32.7734 24.4434 32.8571 24.7196 32.8571 25.0021C32.8571 25.381 32.7066 25.7444 32.4387 26.0123C32.1708 26.2802 31.8075 26.4307 31.4286 26.4307ZM37.1429 16.4307H30C29.6211 16.4307 29.2578 16.2802 28.9898 16.0123C28.7219 15.7444 28.5714 15.381 28.5714 15.0021V10.7164C28.5714 10.3375 28.7219 9.97419 28.9898 9.70628C29.2578 9.43837 29.6211 9.28786 30 9.28786H33.4714L37.1429 15.4021V16.4307Z" fill="#01AA73"/>
</g>
</svg>
