<svg width="30" height="36" viewBox="0 0 30 36" fill="none" xmlns="http://www.w3.org/2000/svg">
<g id="Group">
<path id="Vector" fill-rule="evenodd" clip-rule="evenodd" d="M30 4.25C30 3.25544 29.6049 2.30161 28.9017 1.59835C28.1984 0.895088 27.2446 0.5 26.25 0.5H3.75C2.755 0.5 1.80125 0.895 1.09875 1.59875C0.750285 1.94673 0.473871 2.36001 0.285332 2.81495C0.0967939 3.26989 -0.000166958 3.75754 2.15804e-07 4.25V31.75C2.15804e-07 32.7446 0.395088 33.6984 1.09835 34.4016C1.80161 35.1049 2.75544 35.5 3.75 35.5H26.25C27.2446 35.5 28.1984 35.1049 28.9017 34.4016C29.6049 33.6984 30 32.7446 30 31.75V4.25ZM6.25 26.75H23.75C24.0815 26.75 24.3995 26.6183 24.6339 26.3839C24.8683 26.1495 25 25.8315 25 25.5C25 25.1685 24.8683 24.8505 24.6339 24.6161C24.3995 24.3817 24.0815 24.25 23.75 24.25H6.25C5.91848 24.25 5.60054 24.3817 5.36612 24.6161C5.1317 24.8505 5 25.1685 5 25.5C5 25.8315 5.1317 26.1495 5.36612 26.3839C5.60054 26.6183 5.91848 26.75 6.25 26.75ZM6.25 19.25H23.75C24.0815 19.25 24.3995 19.1183 24.6339 18.8839C24.8683 18.6495 25 18.3315 25 18C25 17.6685 24.8683 17.3505 24.6339 17.1161C24.3995 16.8817 24.0815 16.75 23.75 16.75H6.25C5.91848 16.75 5.60054 16.8817 5.36612 17.1161C5.1317 17.3505 5 17.6685 5 18C5 18.3315 5.1317 18.6495 5.36612 18.8839C5.60054 19.1183 5.91848 19.25 6.25 19.25ZM6.25 11.75H23.75C24.0815 11.75 24.3995 11.6183 24.6339 11.3839C24.8683 11.1495 25 10.8315 25 10.5C25 10.1685 24.8683 9.85054 24.6339 9.61612C24.3995 9.3817 24.0815 9.25 23.75 9.25H6.25C5.91848 9.25 5.60054 9.3817 5.36612 9.61612C5.1317 9.85054 5 10.1685 5 10.5C5 10.8315 5.1317 11.1495 5.36612 11.3839C5.60054 11.6183 5.91848 11.75 6.25 11.75Z" fill="#01AA73"/>
</g>
</svg>
