<svg width="36" height="36" viewBox="0 0 36 36" fill="none" xmlns="http://www.w3.org/2000/svg">
<g id="Group">
<path id="Union" fill-rule="evenodd" clip-rule="evenodd" d="M4.32211 0.222183H31.6777C32.765 0.222183 33.8079 0.654146 34.5768 1.42305C35.3457 2.19194 35.7777 3.2348 35.7777 4.32218V24.5889L27.6777 18.2889C26.4816 17.3435 24.9976 16.8366 23.4731 16.8528C21.9486 16.869 20.4757 17.4072 19.2999 18.3777L0.66655 33.5555C0.365178 32.9721 0.212512 32.3232 0.222105 31.6666V4.32218C0.220639 3.78335 0.325688 3.24955 0.531213 2.75145C0.736738 2.25335 1.03869 1.80079 1.4197 1.41978C1.80071 1.03876 2.25327 0.736816 2.75137 0.531291C3.24947 0.325766 3.78327 0.220717 4.32211 0.222183ZM7.51397 15.9369C8.18675 16.3888 8.97835 16.6311 9.78877 16.6333C10.8772 16.6333 11.9212 16.2017 12.6918 15.4331C13.4625 14.6645 13.8969 13.6217 13.8999 12.5333C13.8999 11.7229 13.6597 10.9306 13.2097 10.2566C12.7596 9.58262 12.12 9.05711 11.3714 8.74646C10.6229 8.43582 9.79911 8.35398 9.00409 8.51128C8.20907 8.66858 7.47851 9.05797 6.90467 9.63025C6.33084 10.2025 5.93948 10.932 5.78002 11.7266C5.62057 12.5212 5.70018 13.3452 6.0088 14.0946C6.31741 14.844 6.84119 15.4851 7.51397 15.9369ZM35.7777 27.7999L26.111 20.2999C25.3659 19.7158 24.4444 19.402 23.4977 19.4101C22.5509 19.4181 21.6349 19.7476 20.8999 20.3444L2.44434 35.3333C3.02686 35.6263 3.67003 35.7785 4.32211 35.7777H31.6777C32.7661 35.7748 33.8089 35.3403 34.5775 34.5697C35.3461 33.799 35.7777 32.755 35.7777 31.6666V27.7999Z" fill="#01AA73"/>
</g>
</svg>
