<svg width="36" height="40" viewBox="0 0 36 40" fill="none" xmlns="http://www.w3.org/2000/svg">
<g id="Group">
<path id="32" d="M21.22 20.3154L19.9266 21.0639C19.6177 21.2426 19.4275 21.5725 19.4275 21.9294V38.2679C19.4275 39.0377 20.2608 39.5188 20.9275 39.1339L35.0686 30.9692C35.378 30.7905 35.5686 30.4604 35.5686 30.1032V13.765C35.5686 12.9953 34.7353 12.5142 34.0687 12.899L21.22 20.3154ZM22.6436 4.45833C23.3097 4.07361 23.3102 3.11231 22.6445 2.72694L18.434 0.289614C18.1245 0.110431 17.7428 0.110203 17.4331 0.289018L2.84364 8.71133C2.17716 9.09608 2.17687 10.058 2.84312 10.4431L7.06001 12.8809C7.36954 13.0599 7.75105 13.0599 8.06065 12.8811L22.6436 4.45833ZM33.0061 10.4489C33.6745 10.0625 33.6714 9.09646 33.0005 8.7143L27.8595 5.78597C27.5508 5.61014 27.172 5.61128 26.8644 5.78895L11.7026 14.5461C11.3037 14.7765 11.3171 15.3567 11.7262 15.5685L17.434 18.8649C17.7432 19.0435 18.1243 19.0437 18.4336 18.8653L24.108 15.5934L33.0061 10.4489ZM9.52708 20.2953C9.52708 21.0435 8.73544 21.5267 8.06995 21.1847L7.099 20.6857C6.76567 20.5143 6.55612 20.171 6.55612 19.7963V16.2378C6.55612 15.8802 6.36511 15.5497 6.05517 15.3713L1.93069 12.9961C1.26402 12.6121 0.431641 13.0933 0.431641 13.8626V30.07C0.431641 30.4272 0.62222 30.7573 0.931595 30.936L14.9565 39.0343C15.6232 39.4192 16.4565 38.9381 16.4565 38.1683V21.9639C16.4565 21.6063 16.2656 21.2759 15.9557 21.0974L11.0262 18.2578C10.3596 17.8737 9.52708 18.3549 9.52708 19.1243V20.2953Z" fill="#01AA73"/>
</g>
</svg>
