<svg width="30" height="30" viewBox="0 0 30 30" fill="none" xmlns="http://www.w3.org/2000/svg">
<g id="&#208;&#190;&#208;&#191;&#208;&#187;&#208;&#176;&#209;&#130;&#208;&#176;" clip-path="url(#clip0_18_2770)">
<g id="Group">
<g id="Group_2">
<path id="Vector" d="M29 9V6.5C29 5.96957 28.7893 5.46086 28.4142 5.08579C28.0391 4.71071 27.5304 4.5 27 4.5H2C1.46957 4.5 0.960859 4.71071 0.585786 5.08579C0.210714 5.46086 0 5.96957 0 6.5L0 9H29ZM16.6835 11H0V22.5C0 23.0304 0.210714 23.5391 0.585786 23.9142C0.960859 24.2893 1.46957 24.5 2 24.5H15.137C13.7525 22.8072 12.9973 20.6869 13 18.5C13 15.4475 14.446 12.7385 16.6835 11ZM2 18H8.5V19.5H2V18ZM11 22.5H2V21H11V22.5Z" fill="#01AA73"/>
<path id="Vector_2" d="M22.5 11C18.358 11 15 14.358 15 18.5C15 22.642 18.358 26 22.5 26C26.642 26 30 22.642 30 18.5C30 14.358 26.642 11 22.5 11ZM22 22.414L18.293 18.707L19.707 17.293L22 19.586L25.793 15.793L27.207 17.207L22 22.414Z" fill="#01AA73"/>
</g>
</g>
</g>
<defs>
<clipPath id="clip0_18_2770">
<rect width="30" height="30" fill="white"/>
</clipPath>
</defs>
</svg>
