<svg width="30" height="30" viewBox="0 0 30 30" fill="none" xmlns="http://www.w3.org/2000/svg">
<g id="&#208;&#191;&#208;&#181;&#209;&#135;" clip-path="url(#clip0_18_3157)">
<g id="Group">
<path id="Vector" d="M27.3633 8.84766H2.63672C1.18283 8.84766 0 10.0305 0 11.4844V22.0312C0 22.5166 0.393516 22.9102 0.878906 22.9102H5.33203V18.5156C5.33203 17.0617 6.51486 15.8789 7.96875 15.8789H22.0312C23.4851 15.8789 24.668 17.0617 24.668 18.5156V22.9102H29.1211C29.6065 22.9102 30 22.5166 30 22.0312V11.4844C30 10.0305 28.8172 8.84766 27.3633 8.84766ZM22.0312 14.1211C21.5459 14.1211 21.1523 13.7276 21.1523 13.2422C21.1523 12.7568 21.5459 12.3633 22.0312 12.3633C22.5166 12.3633 22.9102 12.7568 22.9102 13.2422C22.9102 13.7276 22.5166 14.1211 22.0312 14.1211ZM25.5469 14.1211C25.0615 14.1211 24.668 13.7276 24.668 13.2422C24.668 12.7568 25.0615 12.3633 25.5469 12.3633C26.0323 12.3633 26.4258 12.7568 26.4258 13.2422C26.4258 13.7276 26.0323 14.1211 25.5469 14.1211Z" fill="white"/>
<path id="Vector_2" d="M22.0312 17.6367H7.96875C7.48336 17.6367 7.08984 18.0302 7.08984 18.5156V29.1211C7.08984 29.6065 7.48336 30 7.96875 30H22.0312C22.5166 30 22.9102 29.6065 22.9102 29.1211V18.5156C22.9102 18.0302 22.5166 17.6367 22.0312 17.6367ZM18.5156 26.4258H11.4844C10.999 26.4258 10.6055 26.0323 10.6055 25.5469C10.6055 25.0615 10.999 24.668 11.4844 24.668H18.5156C19.001 24.668 19.3945 25.0615 19.3945 25.5469C19.3945 26.0323 19.001 26.4258 18.5156 26.4258ZM18.5156 22.9102H11.4844C10.999 22.9102 10.6055 22.5166 10.6055 22.0312C10.6055 21.5459 10.999 21.1523 11.4844 21.1523H18.5156C19.001 21.1523 19.3945 21.5459 19.3945 22.0312C19.3945 22.5166 19.001 22.9102 18.5156 22.9102ZM22.9102 7.08984V0.878906C22.9102 0.393516 22.5166 0 22.0312 0H7.96875C7.48336 0 7.08984 0.393516 7.08984 0.878906V7.08984H22.9102Z" fill="white"/>
</g>
</g>
<defs>
<clipPath id="clip0_18_3157">
<rect width="30" height="30" fill="white"/>
</clipPath>
</defs>
</svg>
