<svg width="30" height="22" viewBox="0 0 30 22" fill="none" xmlns="http://www.w3.org/2000/svg">
<g id="Group">
<path id="13-Delivery-truck" d="M29.85 10.4552L26.6357 5.09807C26.5409 4.93813 26.4061 4.80562 26.2445 4.71357C26.083 4.62152 25.9002 4.5731 25.7143 4.57307H19.2857V1.35878C19.2857 1.07462 19.1728 0.8021 18.9719 0.601168C18.771 0.400236 18.4984 0.287354 18.2143 0.287354H1.07143C0.787268 0.287354 0.514746 0.400236 0.313814 0.601168C0.112882 0.8021 0 1.07462 0 1.35878V18.5016C0 18.7858 0.112882 19.0583 0.313814 19.2593C0.514746 19.4602 0.787268 19.5731 1.07143 19.5731H4.47857C4.70379 20.1936 5.1146 20.7297 5.65518 21.1086C6.19575 21.4875 6.83987 21.6907 7.5 21.6907C8.16013 21.6907 8.80425 21.4875 9.34482 21.1086C9.8854 20.7297 10.2962 20.1936 10.5214 19.5731H20.55C20.7752 20.1936 21.186 20.7297 21.7266 21.1086C22.2672 21.4875 22.9113 21.6907 23.5714 21.6907C24.2316 21.6907 24.8757 21.4875 25.4163 21.1086C25.9568 20.7297 26.3676 20.1936 26.5929 19.5731H28.9286C29.2127 19.5731 29.4853 19.4602 29.6862 19.2593C29.8871 19.0583 30 18.7858 30 18.5016V11.0016C29.9999 10.8093 29.9481 10.6206 29.85 10.4552ZM7.5 19.5731C7.28809 19.5731 7.08094 19.5102 6.90475 19.3925C6.72855 19.2748 6.59122 19.1074 6.51013 18.9117C6.42904 18.7159 6.40782 18.5005 6.44916 18.2926C6.4905 18.0848 6.59254 17.8939 6.74239 17.744C6.89223 17.5942 7.08314 17.4921 7.29098 17.4508C7.49881 17.4095 7.71424 17.4307 7.91002 17.5118C8.1058 17.5929 8.27313 17.7302 8.39086 17.9064C8.50859 18.0826 8.57143 18.2897 8.57143 18.5016C8.57143 18.7858 8.45855 19.0583 8.25761 19.2593C8.05668 19.4602 7.78416 19.5731 7.5 19.5731ZM23.5714 19.5731C23.3595 19.5731 23.1524 19.5102 22.9762 19.3925C22.8 19.2748 22.6627 19.1074 22.5816 18.9117C22.5005 18.7159 22.4792 18.5005 22.5206 18.2926C22.5619 18.0848 22.664 17.8939 22.8138 17.744C22.9637 17.5942 23.1546 17.4921 23.3624 17.4508C23.5702 17.4095 23.7857 17.4307 23.9814 17.5118C24.1772 17.5929 24.3446 17.7302 24.4623 17.9064C24.58 18.0826 24.6429 18.2897 24.6429 18.5016C24.6429 18.7858 24.53 19.0583 24.329 19.2593C24.1281 19.4602 23.8556 19.5731 23.5714 19.5731ZM27.8571 12.0731H22.5C22.2158 12.0731 21.9433 11.9602 21.7424 11.7593C21.5415 11.5583 21.4286 11.2858 21.4286 11.0016V7.78735C21.4286 7.50319 21.5415 7.23067 21.7424 7.02974C21.9433 6.82881 22.2158 6.71593 22.5 6.71593H25.1036L27.8571 11.3016V12.0731Z" fill="white"/>
</g>
</svg>
