<svg width="30" height="30" viewBox="0 0 30 30" fill="none" xmlns="http://www.w3.org/2000/svg">
<g id="&#209;&#141;&#208;&#186;&#208;&#190;">
<g id="Group">
<path id="Vector" d="M26.6665 5.52186C26.6377 5.42055 26.5749 5.33222 26.4887 5.27164C26.4025 5.21106 26.2982 5.1819 26.1931 5.18905C14.8835 5.51998 7.09761 12.9037 5.98058 22.6828C5.9766 22.7698 5.99664 22.8563 6.03849 22.9327C6.08034 23.0092 6.14239 23.0726 6.21787 23.1162C6.29335 23.1597 6.37935 23.1817 6.46646 23.1796C6.55358 23.1776 6.63846 23.1517 6.71183 23.1047L17.2118 16.05C14.8951 19.6039 11.8279 22.6071 8.22589 24.8484C6.62308 25.8276 4.91353 26.6203 3.13058 27.2109C3.0144 27.2516 2.91885 27.3363 2.86454 27.4468C2.81023 27.5572 2.80151 27.6846 2.84025 27.8015C2.87899 27.9183 2.9621 28.0152 3.07165 28.0714C3.1812 28.1275 3.30842 28.1383 3.42589 28.1015C5.19584 27.5128 6.89648 26.7332 8.49776 25.7765C12.9181 28.1156 17.6993 26.2172 17.9056 26.1328C31.0118 20.714 26.7134 5.67186 26.6665 5.52186Z" fill="white"/>
<path id="Vector_2" d="M5.71366 19.2421C6.86103 15.1545 9.25707 11.5277 12.5668 8.86867C12.0498 5.94883 10.029 2.72899 7.28866 1.89836C7.21198 1.87347 7.13014 1.86902 7.05121 1.88547C6.97229 1.90191 6.89902 1.93867 6.83866 1.99211C3.60241 4.80649 -0.210399 12.6557 5.71366 19.2421Z" fill="white"/>
</g>
</g>
</svg>
