<svg width="28" height="30" viewBox="0 0 28 30" fill="none" xmlns="http://www.w3.org/2000/svg">
<g id="Group">
<path id="32" d="M16.4145 15.2365L15.5693 15.7257C15.2603 15.9044 15.0701 16.2343 15.0701 16.5912V28.2679C15.0701 29.0377 15.9035 29.5188 16.5701 29.1339L26.676 23.2991C26.9854 23.1204 27.1759 22.7903 27.1759 22.433V10.7567C27.1759 9.98699 26.3427 9.50585 25.676 9.89066L16.4145 15.2365ZM17.1078 3.55999C17.7739 3.17527 17.7744 2.21397 17.1087 1.8286L14.4501 0.289614C14.1406 0.110431 13.7589 0.110203 13.4492 0.289018L3.00703 6.31714C2.34055 6.70189 2.34025 7.66377 3.0065 8.04893L5.66945 9.58839C5.97898 9.76733 6.36049 9.76741 6.67009 9.58859L17.1078 3.55999ZM24.8769 8.05476C25.5454 7.66829 25.5423 6.70226 24.8713 6.32011L21.5187 4.41045C21.2101 4.23462 20.8313 4.23576 20.5236 4.41343L9.27649 10.9095C8.97731 11.0823 8.98736 11.5175 9.2942 11.6763L13.4501 14.0765C13.7593 14.2551 14.1403 14.2553 14.4497 14.0769L18.5805 11.695L24.8769 8.05476ZM7.64482 14.8119C7.64482 15.5601 6.85319 16.0433 6.1877 15.7013L5.95948 15.584C5.62616 15.4127 5.4166 15.0694 5.4166 14.6946V12.3229C5.4166 11.9652 5.22559 11.6348 4.91565 11.4563L2.32229 9.96286C1.65562 9.57894 0.823242 10.0601 0.823242 10.8294V22.4082C0.823242 22.7654 1.01382 23.0955 1.3232 23.2742L11.3419 29.0592C12.0085 29.4441 12.8419 28.963 12.8419 28.1932V16.6174C12.8419 16.2598 12.6509 15.9294 12.3411 15.7509L9.14397 13.9092C8.4773 13.5252 7.64482 14.0064 7.64482 14.7757V14.8119Z" fill="#01AA73"/>
</g>
</svg>
