<svg width="30" height="30" viewBox="0 0 30 30" fill="none" xmlns="http://www.w3.org/2000/svg">
<g clip-path="url(#clip0_18_3208)">
<path d="M19.187 4.18604C17.0482 4.18604 14.9574 4.82026 13.1791 6.00851C11.4008 7.19677 10.0147 8.88568 9.19621 10.8617C8.37773 12.8377 8.16358 15.012 8.58084 17.1097C8.9981 19.2074 10.028 21.1342 11.5404 22.6466C13.0527 24.159 14.9796 25.1889 17.0773 25.6062C19.175 26.0234 21.3493 25.8093 23.3253 24.9908C25.3013 24.1723 26.9902 22.7862 28.1785 21.0079C29.3667 19.2296 30.001 17.1388 30.001 15C29.9973 12.1331 28.8568 9.38466 26.8295 7.35745C24.8023 5.33024 22.0539 4.18973 19.187 4.18604ZM22.7172 18.5302C22.521 18.7262 22.255 18.8363 21.9777 18.8363C21.7004 18.8363 21.4344 18.7262 21.2382 18.5302L18.4475 15.7395C18.2512 15.5435 18.1407 15.2774 18.1405 15V9.41859C18.1405 9.14104 18.2508 8.87486 18.447 8.6786C18.6433 8.48234 18.9095 8.37208 19.187 8.37208C19.4646 8.37208 19.7307 8.48234 19.927 8.6786C20.1233 8.87486 20.2335 9.14104 20.2335 9.41859V14.5674L22.7172 17.0512C22.9132 17.2474 23.0233 17.5134 23.0233 17.7907C23.0233 18.068 22.9132 18.334 22.7172 18.5302Z" fill="white"/>
<path d="M9.4186 7.67432H5.23256C4.95501 7.67432 4.68882 7.56406 4.49256 7.36781C4.2963 7.17155 4.18605 6.90536 4.18605 6.62781C4.18605 6.35026 4.2963 6.08407 4.49256 5.88781C4.68882 5.69156 4.95501 5.5813 5.23256 5.5813H9.4186C9.69616 5.5813 9.96234 5.69156 10.1586 5.88781C10.3549 6.08407 10.4651 6.35026 10.4651 6.62781C10.4651 6.90536 10.3549 7.17155 10.1586 7.36781C9.96234 7.56406 9.69616 7.67432 9.4186 7.67432ZM6.62791 11.8604H2.44186C2.16431 11.8604 1.89812 11.7501 1.70186 11.5539C1.50561 11.3576 1.39535 11.0914 1.39535 10.8139C1.39535 10.5363 1.50561 10.2701 1.70186 10.0739C1.89812 9.8776 2.16431 9.76734 2.44186 9.76734H6.62791C6.90546 9.76734 7.17164 9.8776 7.3679 10.0739C7.56416 10.2701 7.67442 10.5363 7.67442 10.8139C7.67442 11.0914 7.56416 11.3576 7.3679 11.5539C7.17164 11.7501 6.90546 11.8604 6.62791 11.8604ZM6.62791 20.2325H2.44186C2.16431 20.2325 1.89812 20.1222 1.70186 19.9259C1.50561 19.7297 1.39535 19.4635 1.39535 19.1859C1.39535 18.9084 1.50561 18.6422 1.70186 18.446C1.89812 18.2497 2.16431 18.1394 2.44186 18.1394H6.62791C6.90546 18.1394 7.17164 18.2497 7.3679 18.446C7.56416 18.6422 7.67442 18.9084 7.67442 19.1859C7.67442 19.4635 7.56416 19.7297 7.3679 19.9259C7.17164 20.1222 6.90546 20.2325 6.62791 20.2325ZM6.62791 16.0464H1.04651C0.76896 16.0464 0.502775 15.9362 0.306516 15.7399C0.110257 15.5436 0 15.2775 0 14.9999C0 14.7224 0.110257 14.4562 0.306516 14.2599C0.502775 14.0636 0.76896 13.9534 1.04651 13.9534H6.62791C6.90546 13.9534 7.17164 14.0636 7.3679 14.2599C7.56416 14.4562 7.67442 14.7224 7.67442 14.9999C7.67442 15.2775 7.56416 15.5436 7.3679 15.7399C7.17164 15.9362 6.90546 16.0464 6.62791 16.0464ZM9.4186 24.4185H5.23256C4.95501 24.4185 4.68882 24.3083 4.49256 24.112C4.2963 23.9157 4.18605 23.6495 4.18605 23.372C4.18605 23.0944 4.2963 22.8283 4.49256 22.632C4.68882 22.4357 4.95501 22.3255 5.23256 22.3255H9.4186C9.69616 22.3255 9.96234 22.4357 10.1586 22.632C10.3549 22.8283 10.4651 23.0944 10.4651 23.372C10.4651 23.6495 10.3549 23.9157 10.1586 24.112C9.96234 24.3083 9.69616 24.4185 9.4186 24.4185Z" fill="white"/>
</g>
<defs>
<clipPath id="clip0_18_3208">
<rect width="30" height="30" fill="white"/>
</clipPath>
</defs>
</svg>